# xmcd
#
# Track frame offsets:
#	150
#	20401
#	41240
#	59105
#	78873
#	99508
#	115643
#	134014
#
# Disc length: 2014 seconds
#
# Revision: 1
# Processed by: cddbd v1.5.1PL0 Copyright (c) Steve Scherf et al.
# Submitted via: EasyCDDAExtractor 7.0.6.1
#
DISCID=6a07dc08
DTITLE=Various Artist - Compil Sega
DYEAR=2000
DGENRE=Folklore
TTITLE0=R. Modliar - Mo la doukia
TTITLE1=G. Armelle - Lavie Kotomidor
TTITLE2=J. Courtois - Liline
TTITLE3=R. Modliar - Zanfan innocent
TTITLE4=G. Armelle - Sa la poude la?
TTITLE5=R. Modliar - Mama banané
TTITLE6=G. Armelle - Zanfan zour mama
TTITLE7=R. Modliar - Mémé
EXTD=
EXTT0=
EXTT1=
EXTT2=
EXTT3=
EXTT4=
EXTT5=
EXTT6=
EXTT7=
PLAYORDER=
